<svg xmlns="http://www.w3.org/2000/svg" viewBox="0 0 1344 768" width="1344" height="768">
    <defs>
      <linearGradient id="bg" x1="0" y1="0" x2="1" y2="1">
        <stop offset="0%" stop-color="#0a0e1a"/>
        <stop offset="100%" stop-color="#0f1729"/>
      </linearGradient>
      <linearGradient id="g" x1="0" y1="0" x2="1" y2="0">
        <stop offset="0%" stop-color="#3b82f6"/>
        <stop offset="100%" stop-color="#22d3ee"/>
      </linearGradient>
      <radialGradient id="glow1" cx="20%" cy="20%" r="50%">
        <stop offset="0%" stop-color="#3b82f6" stop-opacity="0.35"/>
        <stop offset="100%" stop-color="#3b82f6" stop-opacity="0"/>
      </radialGradient>
      <radialGradient id="glow2" cx="85%" cy="80%" r="50%">
        <stop offset="0%" stop-color="#22d3ee" stop-opacity="0.3"/>
        <stop offset="100%" stop-color="#22d3ee" stop-opacity="0"/>
      </radialGradient>
    </defs>
    <rect width="1344" height="768" fill="url(#bg)"/>
    <rect width="1344" height="768" fill="url(#glow1)"/>
    <rect width="1344" height="768" fill="url(#glow2)"/>
    
        <g opacity="0.9">
          <rect x="120" y="440" width="36" height="40" rx="6" fill="#3b82f6" opacity="0.85"/><rect x="172" y="410" width="36" height="70" rx="6" fill="#22d3ee" opacity="0.85"/><rect x="224" y="425" width="36" height="55" rx="6" fill="#3b82f6" opacity="0.85"/><rect x="276" y="390" width="36" height="90" rx="6" fill="#22d3ee" opacity="0.85"/><rect x="328" y="415" width="36" height="65" rx="6" fill="#3b82f6" opacity="0.85"/><rect x="380" y="370" width="36" height="110" rx="6" fill="#22d3ee" opacity="0.85"/><rect x="432" y="400" width="36" height="80" rx="6" fill="#3b82f6" opacity="0.85"/><rect x="484" y="385" width="36" height="95" rx="6" fill="#22d3ee" opacity="0.85"/>
          <polyline points="120,260 180,232.5001927111755 240,222.78457107365415 300,235.1786035929851 360,257.2756132988456 420,269.32590352995294 480,259.18293462667964 540,231.49558298546953" fill="none" stroke="#22d3ee" stroke-width="3" opacity="0.85"/>
          <circle cx="1120" cy="200" r="60" fill="none" stroke="#22d3ee" stroke-width="2" opacity="0.4"/>
          <circle cx="1120" cy="200" r="36" fill="#22d3ee" opacity="0.25"/>
        </g>
    <rect x="80" y="640" width="280" height="5" rx="2.5" fill="url(#g)"/>
    <text x="80" y="610" font-family="Space Grotesk, sans-serif" font-weight="700" font-size="42" fill="#e7ecf5" letter-spacing="-1">Aurora Analytics</text>
  </svg>