<svg xmlns="http://www.w3.org/2000/svg" viewBox="0 0 1344 768" width="1344" height="768">
    <defs>
      <linearGradient id="bg" x1="0" y1="0" x2="1" y2="1">
        <stop offset="0%" stop-color="#0a0e1a"/>
        <stop offset="100%" stop-color="#0f1729"/>
      </linearGradient>
      <linearGradient id="g" x1="0" y1="0" x2="1" y2="0">
        <stop offset="0%" stop-color="#10b981"/>
        <stop offset="100%" stop-color="#3b82f6"/>
      </linearGradient>
      <radialGradient id="glow1" cx="20%" cy="20%" r="50%">
        <stop offset="0%" stop-color="#10b981" stop-opacity="0.35"/>
        <stop offset="100%" stop-color="#10b981" stop-opacity="0"/>
      </radialGradient>
      <radialGradient id="glow2" cx="85%" cy="80%" r="50%">
        <stop offset="0%" stop-color="#3b82f6" stop-opacity="0.3"/>
        <stop offset="100%" stop-color="#3b82f6" stop-opacity="0"/>
      </radialGradient>
    </defs>
    <rect width="1344" height="768" fill="url(#bg)"/>
    <rect width="1344" height="768" fill="url(#glow1)"/>
    <rect width="1344" height="768" fill="url(#glow2)"/>
    
        <g opacity="0.95">
          <g>
    <circle cx="680" cy="380" r="140" fill="none" stroke="rgba(255,255,255,0.08)" stroke-width="22"/>
    <circle cx="680" cy="380" r="140" fill="none" stroke="url(#g)" stroke-width="22" stroke-linecap="round" stroke-dasharray="196 700" transform="rotate(-90 680 380)" opacity="0.7"/>
    <text x="680" y="388" font-family="Space Grotesk, sans-serif" font-weight="700" font-size="44" fill="#e7ecf5" text-anchor="middle">68%</text>
  </g>
          <rect x="160" y="420" width="36" height="60" rx="6" fill="#10b981" opacity="0.85"/><rect x="212" y="440" width="36" height="40" rx="6" fill="#3b82f6" opacity="0.85"/><rect x="264" y="400" width="36" height="80" rx="6" fill="#10b981" opacity="0.85"/><rect x="316" y="430" width="36" height="50" rx="6" fill="#3b82f6" opacity="0.85"/><rect x="368" y="385" width="36" height="95" rx="6" fill="#10b981" opacity="0.85"/><rect x="420" y="410" width="36" height="70" rx="6" fill="#3b82f6" opacity="0.85"/><rect x="472" y="395" width="36" height="85" rx="6" fill="#10b981" opacity="0.85"/>
        </g>
    <rect x="80" y="640" width="280" height="5" rx="2.5" fill="url(#g)"/>
    <text x="80" y="610" font-family="Space Grotesk, sans-serif" font-weight="700" font-size="42" fill="#e7ecf5" letter-spacing="-1">Fern Finance</text>
  </svg>